# xmcd
# 
# Track frame offsets:
#     150
#     10757
#     20556
#     31382
#     47749
#     65244
#     78704
#     92019
#     106625
#     120288
#     130831
#     145376
#     162892
#     172749
#     188472
#     201596
#     218485
#     231663
# 
# Disc length: 3252
# 
# Revision: 4
# Processed by: cddbd v1.5.2PL0 Copyright (c) Steve Scherf et al.
# Submitted via: fre:ac v1.0.17
# 
DISCID=f00cb212
DTITLE=Various Artist - 50 years of Country - Disc 5 - 1975 - 1988
DYEAR=2000
DGENRE=Country
TTITLE0=Jessie Coulter - What's Happened To Blue Eyes
TTITLE1=Billie Jo Spears - Never Did Like Whiskey
TTITLE2=The Kendalls - Heaven's Just A Sin Away
TTITLE3=Debby Boone - You Light Up My Life
TTITLE4=Gene Watson - Paper Rosie
TTITLE5=Glen Campbell - Southern Nights
TTITLE6=Crystal Gayle - Why Have You Left The One You Left Me For
TTITLE7=Bellamy Brothers - If I Said You Had A Beautiful Body Would You Hold It Against Me
TTITLE8=Willie Nelson and Leon Russell - Heartbreak Hotel
TTITLE9=Mel McDaniel - Lousiana Saturday Night
TTITLE10=Nitty Gritty Dirt Band - Dance Little Jean
TTITLE11=Deborah Allen - Baby I Lied
TTITLE12=The Whites - Pins and Needles
TTITLE13=The Judds - Why Not Me
TTITLE14=The Kendalls - Thank God For The Radio
TTITLE15=Dan Seals - Bop
TTITLE16=Suzy Bogguss - I Don't Want To Set The World On Fire
TTITLE17=Tanya Tucker - Strong Enough To Bend
EXTD=YEAR: 2000
EXTT0=1975
EXTT1=1976
EXTT2=1977
EXTT3=1977
EXTT4=1977
EXTT5=1977
EXTT6=1978
EXTT7=1979
EXTT8=1979
EXTT9=1981
EXTT10=1983
EXTT11=1983
EXTT12=1984
EXTT13=1984
EXTT14=1984
EXTT15=1985
EXTT16=1987
EXTT17=1988
PLAYORDER=
